<svg width="147" height="37" viewBox="0 0 147 37" fill="none" xmlns="http://www.w3.org/2000/svg">
<path d="M13.7993 31.9689L3.64749 27.9702" stroke="#F7F8FA" stroke-width="1.5" stroke-linecap="round" stroke-linejoin="round"/>
<path d="M5.15955 27.7972C5.15955 27.7972 8.73261 16.4024 10.511 11.5596C11.8924 7.79276 13.3264 8.41842 15.7188 9.00932C16.0349 9.08941 16.6455 9.29616 17.2805 9.51876C17.5684 9.62103 17.8332 9.77941 18.0596 9.98471C18.2859 10.19 18.4693 10.4382 18.5991 10.7148C18.7289 10.9915 18.8025 11.2911 18.8157 11.5965C18.8289 11.9018 18.7814 12.2066 18.676 12.4935C17.5529 15.5706 15.5615 21.0935 14.898 23.3911C14.1655 25.9079 13.2477 28.7894 12.7501 31.1516" stroke="#F7F8FA" stroke-width="1.5" stroke-linecap="round" stroke-linejoin="round"/>
<path d="M14.1978 8.27084C14.5688 7.66749 14.665 6.80735 15.0538 5.9903L17.8463 6.78524L16.7791 9.18393" stroke="#F7F8FA" stroke-width="1.5" stroke-linecap="round" stroke-linejoin="round"/>
<path d="M16.65 5.99383L18.5286 1.64945" stroke="#F7F8FA" stroke-width="1.5" stroke-linecap="round" stroke-linejoin="round"/>
<path d="M5.1741 33.4995C6.5102 34.0913 7.88804 34.584 9.29646 34.9736" stroke="#F7F8FA" stroke-width="1.5" stroke-linecap="round" stroke-linejoin="round"/>
<path d="M7.213 34.0812L8.66162 30.1112" stroke="#F7F8FA" stroke-width="1.5" stroke-linecap="round" stroke-linejoin="round"/>
<path d="M13.272 21.9085C13.471 21.805 13.6218 21.6282 13.6926 21.4154L16.5807 12.7373C16.6363 12.5756 16.6588 12.4043 16.6471 12.2337C16.6353 12.0631 16.5895 11.8966 16.5122 11.744C16.3589 11.4358 16.0904 11.2003 15.7648 11.0886L14.0695 10.5182C13.9078 10.4626 13.7366 10.44 13.5659 10.4517C13.3953 10.4635 13.2288 10.5093 13.0762 10.5866C12.768 10.7399 12.5325 11.0084 12.4208 11.3341L9.53274 20.0122C9.49648 20.1193 9.48175 20.2324 9.4894 20.3452C9.49704 20.458 9.52688 20.5681 9.57725 20.6693C9.68156 20.8676 9.85812 21.0182 10.0704 21.0899L12.6066 21.939C12.714 21.9786 12.8281 21.9963 12.9424 21.991C13.0567 21.9858 13.1688 21.9577 13.272 21.9085Z" fill="#FF8956"/>
<path d="M56.6917 11.8256C55.548 11.8256 54.5153 11.5702 53.5937 11.0594C52.6721 10.5376 51.9448 9.82692 51.4118 8.9275C50.8899 8.02809 50.629 7.02319 50.629 5.91281C50.629 4.80242 50.8899 3.79752 51.4118 2.89811C51.9448 1.9987 52.6721 1.2936 53.5937 0.782822C54.5153 0.260941 55.548 0 56.6917 0C57.8354 0 58.8681 0.255389 59.7897 0.766167C60.7113 1.27694 61.4331 1.98204 61.9549 2.88145C62.4879 3.78086 62.7544 4.79132 62.7544 5.91281C62.7544 7.0343 62.4879 8.04475 61.9549 8.94416C61.4331 9.84357 60.7113 10.5487 59.7897 11.0594C58.8681 11.5702 57.8354 11.8256 56.6917 11.8256ZM56.6917 11.0428C57.6688 11.0428 58.5516 10.8207 59.34 10.3766C60.1284 9.9324 60.7502 9.32169 61.2054 8.54442C61.6607 7.75605 61.8883 6.87884 61.8883 5.91281C61.8883 4.94677 61.6607 4.07512 61.2054 3.29785C60.7502 2.50947 60.1284 1.89321 59.34 1.44905C58.5516 1.0049 57.6688 0.782822 56.6917 0.782822C55.7146 0.782822 54.8263 1.0049 54.0268 1.44905C53.2384 1.89321 52.6166 2.50947 52.1613 3.29785C51.7061 4.07512 51.4784 4.94677 51.4784 5.91281C51.4784 6.87884 51.7061 7.75605 52.1613 8.54442C52.6166 9.32169 53.2384 9.9324 54.0268 10.3766C54.8263 10.8207 55.7146 11.0428 56.6917 11.0428Z" fill="#F7F8FA"/>
<path d="M75.1945 0.0832789V11.7423H74.4949L66.5501 1.61561V11.7423H65.7007V0.0832789H66.4169L74.345 10.21V0.0832789H75.1945Z" fill="#F7F8FA"/>
<path d="M79.266 0.0832789H83.8797C85.09 0.0832789 86.1615 0.333116 87.0943 0.83279C88.0381 1.33246 88.7709 2.02646 89.2928 2.91476C89.8147 3.79197 90.0756 4.79132 90.0756 5.91281C90.0756 7.0343 89.8147 8.0392 89.2928 8.9275C88.7709 9.80471 88.0381 10.4931 87.0943 10.9928C86.1615 11.4925 85.09 11.7423 83.8797 11.7423H79.266V0.0832789ZM83.8131 10.9762C84.8901 10.9762 85.8395 10.7652 86.6612 10.3432C87.4829 9.9102 88.1158 9.31059 88.56 8.54442C89.0041 7.77826 89.2262 6.90105 89.2262 5.91281C89.2262 4.92456 89.0041 4.04736 88.56 3.28119C88.1158 2.51502 87.4829 1.92097 86.6612 1.49902C85.8395 1.06597 84.8901 0.849445 83.8131 0.849445H80.1155V10.9762H83.8131Z" fill="#F7F8FA"/>
<path d="M101.071 10.9762V11.7423H93.0266V0.0832789H100.821V0.849445H93.876V5.44644H100.089V6.19596H93.876V10.9762H101.071Z" fill="#F7F8FA"/>
<path d="M110.678 0.849445H106.481V0.0832789H115.725V0.849445H111.528V11.7423H110.678V0.849445Z" fill="#F7F8FA"/>
<path d="M125.876 10.9762V11.7423H117.831V0.0832789H125.626V0.849445H118.681V5.44644H124.893V6.19596H118.681V10.9762H125.876Z" fill="#F7F8FA"/>
<path d="M139.999 11.7423L139.983 1.76551L135.102 10.1933H134.686L129.806 1.79883V11.7423H128.973V0.0832789H129.689L134.903 9.09406L140.116 0.0832789H140.815L140.832 11.7423H139.999Z" fill="#F7F8FA"/>
<path d="M47.8032 15.9618L39.1421 36.1708H33.5125L24.8803 15.9618H31.0585L36.5438 29.1265L42.1446 15.9618H47.8032Z" fill="#F7F8FA"/>
<path d="M61.8214 32.2445H53.2758L51.688 36.1708H45.8562L54.7771 15.9618H60.4067L69.3564 36.1708H63.4092L61.8214 32.2445ZM60.1469 28.0295L57.5486 21.5626L54.9503 28.0295H60.1469Z" fill="#F7F8FA"/>
<path d="M80.7707 36.575C78.6536 36.575 76.7481 36.1323 75.0544 35.247C73.38 34.3424 72.0616 33.0914 71.0992 31.4939C70.1369 29.8964 69.6557 28.0872 69.6557 26.0663C69.6557 24.0454 70.1369 22.2362 71.0992 20.6387C72.0616 19.0413 73.38 17.7999 75.0544 16.9145C76.7481 16.0099 78.6536 15.5576 80.7707 15.5576C82.6184 15.5576 84.2832 15.8848 85.7652 16.5392C87.2472 17.1936 88.479 18.1367 89.4606 19.3685L85.823 22.6596C84.5142 21.0814 82.9263 20.2923 81.0594 20.2923C79.9623 20.2923 78.9808 20.5329 78.1147 21.0141C77.2678 21.4952 76.6038 22.1785 76.1226 23.0638C75.6607 23.9299 75.4298 24.9308 75.4298 26.0663C75.4298 27.2019 75.6607 28.2123 76.1226 29.0977C76.6038 29.9638 77.2678 30.6374 78.1147 31.1186C78.9808 31.5997 79.9623 31.8403 81.0594 31.8403C82.9263 31.8403 84.5142 31.0512 85.823 29.473L89.4606 32.7642C88.479 33.996 87.2472 34.939 85.7652 35.5934C84.2832 36.2478 82.6184 36.575 80.7707 36.575Z" fill="#F7F8FA"/>
<path d="M92.0093 15.9618H97.7255V36.1708H92.0093V15.9618Z" fill="#F7F8FA"/>
<path d="M121.02 15.9618V36.1708H116.314L107.393 25.4023V36.1708H101.792V15.9618H106.498L115.419 26.7303V15.9618H121.02Z" fill="#F7F8FA"/>
<path d="M138.592 32.2445H130.046L128.459 36.1708H122.627L131.548 15.9618H137.177L146.127 36.1708H140.18L138.592 32.2445ZM136.918 28.0295L134.319 21.5626L131.721 28.0295H136.918Z" fill="#F7F8FA"/>
</svg>
